# xmcd CD database file
#
# Track frame offsets:
#	150
#	43777
#	100517
#	134177
#	178800
#	210250
#	262127
#	305710
#
# Disc length: 4347 seconds
#
# Revision: 0
# Processed by: cddbd v1.5.2PL0 Copyright (c) Steve Scherf et al.
# Submitted via: CDex 1.51
#
DISCID=7710f908
DTITLE=Andy Lutter - Und vergißt die Zeit
DYEAR=1995
DGENRE=Jazz
TTITLE0=Zurückgekehrt
TTITLE1=Rao Lan
TTITLE2=So it is
TTITLE3=Das Scheinen
TTITLE4=For Bill
TTITLE5=No' heißer und verstimmt
TTITLE6=Und vergißt die Zeit
TTITLE7=Zurückgekehrt (reprise)
EXTD=YEAR: 1995
EXTT0=
EXTT1=
EXTT2=
EXTT3=
EXTT4=
EXTT5=
EXTT6=
EXTT7=
PLAYORDER=
